#!OML:ASF F:\VICON\USERDATA\INSTALL\rory3\rory3.ASF
:FULLY-SPECIFIED
:DEGREES
1225
root -2.66468 17.7902 -11.8499 16.4919 -27.2634 6.29906
lowerback 12.0263 -3.92223 -1.3684
upperback 5.3166 -5.28578 8.6629
thorax -0.120048 -2.88113 10.6654
lowerneck -9.56057 -10.3729 -9.12331
upperneck 29.7813 -15.5981 7.28554
head 12.8241 -7.13576 2.03304
rclavicle 9.70069e-014 -3.81667e-014
rhumerus 1.93136 -40.0554 -69.1152
rradius 35.1773
rwrist -22.6161
rhand -36.8909 -29.3638
rfingers 7.12502
rthumb -9.96941 -59.1077
lclavicle 9.70069e-014 -3.81667e-014
lhumerus 37.6329 -69.695 59.2324
lradius 62.7631
lwrist 16.4183
lhand -4.57387 42.7049
lfingers 7.12502
lthumb 21.2028 -1008.43
rfemur -41.3484 2.00395 5.4748
rtibia 34.713
rfoot -9.21263 1.15934
rtoes 1.99371
lfemur -19.6139 2.16373 -26.3977
ltibia 21.8735
lfoot -13.8215 13.2805
ltoes -19.5393
1226
root -2.72256 17.7917 -11.8419 16.2982 -26.9232 6.50446
lowerback 12.0044 -3.93901 -1.36491
upperback 5.43179 -5.31633 8.73252
thorax 0.0285259 -2.90737 10.7374
lowerneck -9.5249 -10.3813 -9.27346
upperneck 29.6338 -15.5769 7.35875
head 12.7755 -7.1352 2.09018
rclavicle -4.13472e-014 1.59028e-014
rhumerus 1.89791 -41.0415 -69.3981
rradius 34.8804
rwrist -23.095
rhand -37.4977 -30.13
rfingers 7.12502
rthumb -10.5547 -59.845
lclavicle -4.13472e-014 1.59028e-014
lhumerus 36.8882 -69.6283 59.6954
lradius 62.6185
lwrist 16.3656
lhand -4.97209 43.3353
lfingers 7.12502
lthumb 20.8202 -1007.76
rfemur -41.2288 2.00709 5.44258
rtibia 35.17
rfoot -9.65881 0.958708
rtoes 1.94861
lfemur -19.2804 2.12503 -26.3252
ltibia 21.691
lfoot -13.6521 12.8331
ltoes -19.9985
1227
root -2.77799 17.7915 -11.8354 16.1535 -26.3548 6.72745
lowerback 12.0462 -3.98528 -1.2863
upperback 5.4476 -5.36602 8.83576
thorax 0.0370735 -2.93375 10.8165
lowerneck -9.75804 -10.4433 -8.85245
upperneck 29.7256 -15.5657 6.8055
head 12.7632 -7.13551 1.80761
rclavicle -5.40694e-014 -7.31528e-014
rhumerus 1.69996 -42.0337 -69.5568
rradius 34.5644
rwrist -23.6169
rhand -37.6733 -30.6025
rfingers 7.12502
rthumb -10.7242 -60.3088
lclavicle -5.40694e-014 -7.31528e-014
lhumerus 35.7698 -69.5682 60.5397
lradius 62.4333
lwrist 16.0212
lhand -4.6093 43.4269
lfingers 7.12502
lthumb 21.1688 -1007.71
rfemur -41.0965 1.77543 5.47204
rtibia 35.6338
rfoot -10.1465 0.755372
rtoes 1.72026
lfemur -19.0203 1.96045 -26.229
ltibia 21.534
lfoot -13.4771 12.3197
ltoes -20.5631
1228
root -2.83153 17.7911 -11.8282 15.9977 -25.7131 7.10868
lowerback 12.019 -4.04479 -1.28882
upperback 5.43819 -5.44195 8.92061
thorax 0.067466 -2.97414 10.9197
lowerneck -9.88541 -10.534 -8.34402
upperneck 29.6314 -15.5882 6.22227
head 12.6436 -7.15315 1.50442
rclavicle -3.18055e-015 3.33958e-014
rhumerus 1.60936 -43.023 -69.7774
rradius 34.2555
rwrist -24.1202
rhand -38.059 -30.903
rfingers 7.12502
rthumb -11.0961 -60.5897
lclavicle -3.18055e-015 3.33958e-014
lhumerus 34.4308 -69.3709 61.6752
lradius 62.1803
lwrist 15.773
lhand -3.77275 43.4486
lfingers 7.12502
lthumb 21.9722 -1007.78
rfemur -40.9859 1.45987 5.3416
rtibia 36.0916
rfoot -10.7106 0.52472
rtoes 1.58985
lfemur -18.8524 1.65056 -26.2528
ltibia 21.384
lfoot -13.3344 11.7293
ltoes -20.7311
1229
root -2.88581 17.7901 -11.8196 15.8779 -25.0681 7.44174
lowerback 11.8546 -4.10226 -1.1488
upperback 5.49843 -5.51066 8.93201
thorax 0.221538 -3.01122 10.8363
lowerneck -9.86549 -10.6376 -8.14615
upperneck 29.4446 -15.7511 6.23047
head 12.5592 -7.20374 1.45445
rclavicle 5.08889e-014 2.38542e-014
rhumerus 1.51516 -43.8666 -70.1111
rradius 34.0112
rwrist -24.6364
rhand -38.4817 -31.2964
rfingers 7.12502
rthumb -11.5039 -60.9608
lclavicle 5.08889e-014 2.38542e-014
lhumerus 33.5508 -69.1828 62.2873
lradius 61.9204
lwrist 15.8667
lhand -3.29173 43.4486
lfingers 7.12502
lthumb 22.434 -1007.83
rfemur -40.8832 1.16797 5.24552
rtibia 36.5136
rfoot -11.1618 0.300329
rtoes 2.01947
lfemur -18.758 1.38049 -26.2546
ltibia 21.2827
lfoot -13.189 11.1836
ltoes -20.9852
1230
root -2.93992 17.7908 -11.8119 15.719 -24.3991 7.75243
lowerback 11.7778 -4.09738 -0.929031
upperback 5.51994 -5.48146 8.97043
thorax 0.262324 -2.99205 10.7384
lowerneck -9.85078 -10.8275 -8.29228
upperneck 29.3615 -16.0444 6.44488
head 12.5862 -7.31906 1.50852
rclavicle -6.36111e-014 2.06736e-014
rhumerus 1.3206 -44.6947 -70.2397
rradius 33.7191
rwrist -24.8559
rhand -38.7929 -31.7844
rfingers 7.12502
rthumb -11.8039 -61.4318
lclavicle -6.36111e-014 2.06736e-014
lhumerus 32.5493 -69.0892 63.099
lradius 61.6557
lwrist 15.7941
lhand -3.05815 43.189
lfingers 7.12502
lthumb 22.6582 -1008.12
rfemur -40.6867 0.827298 5.19237
rtibia 36.8868
rfoot -11.5325 0.132934
rtoes 2.25476
lfemur -18.6155 1.25188 -26.2724
ltibia 21.2281
lfoot -13.0871 10.567
ltoes -21.4255
1231
root -2.99874 17.7928 -11.8073 15.565 -23.7189 7.92998
lowerback 11.8086 -4.03188 -0.664961
upperback 5.45736 -5.35594 9.1161
thorax 0.145169 -2.91891 10.7426
lowerneck -9.5197 -11.0398 -8.91817
upperneck 29.2621 -16.3596 6.87284
head 12.6169 -7.48007 1.72816
rclavicle -6.36111e-014 -1.90833e-014
rhumerus 0.596443 -44.8432 -69.6044
rradius 33.5219
rwrist -25.569
rhand -39.1201 -32.343
rfingers 7.12502
rthumb -12.1195 -61.972
lclavicle -6.36111e-014 -1.90833e-014
lhumerus 31.2745 -69.099 64.2852
lradius 61.4256
lwrist 15.6765
lhand -2.77975 43.1657
lfingers 7.12502
lthumb 22.9253 -1008.18
rfemur -40.4237 0.752726 5.20978
rtibia 37.2191
rfoot -11.9338 -0.175761
rtoes 2.34073
lfemur -18.4482 1.22775 -26.1472
ltibia 21.1945
lfoot -12.9253 9.90251
ltoes -21.9079
